<?xml version="1.0" encoding="UTF-8"?><svg id="a" xmlns="http://www.w3.org/2000/svg" viewBox="0 0 841.89 595.28"><path d="M118.82,267.57c-3.79-.76-7.27-1.14-10.43-1.14-8.85,0-15.37,2.81-19.54,8.44-4.17,5.63-6.26,13.18-6.26,22.67v44.77h-26.94v-97.88h25.61v18.02c6.45-13.53,17.01-20.3,31.68-20.3,1.26,0,3.22.19,5.88.57v24.85Z" fill="#edece7"/><path d="M199.56,336.43c-8.16,5.82-17.87,8.73-29.12,8.73-15.05,0-27.16-4.68-36.33-14.04-9.17-9.36-13.75-21.75-13.75-37.18s4.62-27.69,13.85-37.56c9.23-9.86,20.99-14.8,35.28-14.8s26.56,5.03,35.28,15.08c8.73,10.05,13.09,23.68,13.09,40.88v2.66h-70.19c.13,8.47,2.18,14.92,6.16,19.35,3.99,4.43,9.58,6.64,16.79,6.64,9.48,0,16.12-4.74,19.92-14.23h25.8c-3.04,10.5-8.63,18.65-16.79,24.47ZM184.29,267.29c-3.54-4.11-8.47-6.16-14.8-6.16-5.94,0-10.88,1.96-14.8,5.88-3.92,3.92-6.26,9.3-7.02,16.12h42.87c-.63-6.45-2.72-11.73-6.26-15.84Z" fill="#edece7"/><path d="M278.47,262.64h-19.92l.02,44.32c0,2.91.53,5.08.66,6.4.13,1.33.57,2.69,1.33,4.08.76,1.39,1.93,2.31,3.51,2.75s4.09.71,6.88-.12c5.04-1.49,9.19-3.18,12.19-9.55l.56,27.86c-5.21,3.52-17.25,5.06-21.55,5.06-11.76,0-19.76-2.05-24-6.16-4.24-4.11-6.35-12.05-6.35-23.81v-50.84h-16.32v-18.21h16.32v-29.59h26.75v29.59h19.92v18.21Z" fill="#edece7"/><path d="M351.69,342.31c-.89-2.53-1.52-5.69-1.9-9.48-8.22,8.22-18.78,12.33-31.68,12.33-10.88,0-19.41-2.62-25.61-7.87-6.2-5.25-8.8-14.22-8.8-23.45,0-4.17.04-6.11,1.12-9.27,1.07-3.16,2.85-5.82,5.31-7.97,2.47-2.15,4.69-4.12,7.02-5.31,2.88-1.47,5.28-2.53,9.2-3.42,3.92-.88,7.08-1.55,9.48-1.99s5.75-.92,10.06-1.42c9.48-1.27,15.84-2.59,19.06-3.98,3.22-1.39,4.84-3.98,4.84-7.78,0-8.72-5.88-13.09-17.64-13.09-6.2,0-10.75,1.11-13.66,3.32-2.91,2.21-4.81,6.1-5.69,11.67h-25.23c1.52-22.01,16.63-33.01,45.34-33.01s42.68,10.62,42.68,31.87v42.3c0,12.39,1.14,21.25,3.42,26.56h-27.32ZM330.63,299.82c-7.97,1.27-13.15,2.85-15.55,4.74-2.78,2.4-4.17,5.69-4.17,9.86s1.3,7.24,3.89,9.58c2.59,2.34,6.23,3.51,10.91,3.51,7.21,0,12.99-1.93,17.36-5.79,4.36-3.86,6.55-9.2,6.55-16.03v-11c-3.16,1.9-9.49,3.6-18.97,5.12Z" fill="#edece7"/><path d="M452.2,342.31v-57.1c0-6.96-1.14-12.24-3.41-15.84-2.28-3.6-6.7-5.41-13.28-5.41-14.16,0-21.25,8.6-21.25,25.8v52.55h-26.75v-97.88h25.61v13.66c8.1-10.88,18.91-16.31,32.44-16.31,10.5,0,18.78,3.04,24.85,9.11,6.07,6.07,9.11,14.73,9.11,25.99v65.45h-27.32Z" fill="#edece7"/><path d="M518.55,342.31h-26.94v-97.88h26.94v97.88Z" fill="#edece7"/><path d="M655.05,342.31v-58.43c0-6.45-1.01-11.41-3.04-14.89-2.02-3.48-6.2-5.22-12.52-5.22-12.52,0-18.78,7.84-18.78,23.52v55.01h-26.94v-59.57c0-6.07-1.01-10.78-3.04-14.13-2.02-3.35-5.95-5.03-11.76-5.03-13.03,0-19.54,8.54-19.54,25.61v53.12h-26.94v-97.88h25.61v13.47c7.71-10.75,18.09-16.12,31.11-16.12s22.76,5.37,27.69,16.12c7.84-10.75,18.53-16.12,32.06-16.12,10.75,0,19,3.13,24.76,9.39,5.75,6.26,8.63,14.7,8.63,25.32v65.83h-27.32Z" fill="#edece7"/><path d="M758.92,342.31c-.89-2.53-1.52-5.69-1.9-9.48-8.22,8.22-14.76,12.33-27.66,12.33-10.88,0-23.43-2.62-29.63-7.87-6.2-5.25-9.29-12.49-9.29-21.72,0-4.17.54-7.84,1.61-11,1.07-3.16,2.85-5.82,5.31-7.97,2.47-2.15,4.86-3.84,7.02-5.31,2.8-1.91,5.28-2.53,9.2-3.42,3.92-.88,7.08-1.55,9.48-1.99s5.75-.92,10.06-1.42c9.48-1.27,15.84-2.59,19.06-3.98,3.22-1.39,4.84-3.98,4.84-7.78,0-8.72-5.88-13.09-17.64-13.09-6.2,0-10.75,1.11-13.66,3.32-2.91,2.21-4.81,6.1-5.69,11.67h-25.23c1.52-22.01,16.63-33.01,45.34-33.01s42.68,10.62,42.68,31.87v42.3c0,12.39,1.14,21.25,3.42,26.56h-27.32ZM737.86,299.82c-7.97,1.27-13.15,2.85-15.55,4.74-2.78,2.4-4.17,5.69-4.17,9.86s1.3,7.24,3.89,9.58c2.59,2.34,6.23,3.51,10.91,3.51,7.21,0,12.99-1.93,17.36-5.79s6.55-9.2,6.55-16.03v-11c-3.16,1.9-9.49,3.6-18.97,5.12Z" fill="#edece7"/><path d="M281.11,315.53c1.22-2.19,1.7-3.7,3.03-8.57l10.03,24.31c.34-.08-5.45,5.26-15.24,9.35l-4.33,1.23-1.21-21.25c.6-.02,1.87-.43,2.77-.69,2.8-1.64,2.23-1.76,2.73-2.04.98-.77,1.62-1.25,2.22-2.33Z" fill="#edece7"/><rect x="490.78" y="213.6" width="27.77" height="19.09" fill="#edece7"/><rect x="312.82" y="213.6" width="57.83" height="19.09" fill="#edece7"/><path d="M71.32,357.22c-1.09-.1-1.92-.15-2.48-.15-1.16,0-1.93.21-2.33.62-.4.41-.59,1.23-.59,2.46v2.48h4.86v4.12h-4.81v21.47h-5.6v-21.47h-4.21v-4.12h4.21v-2.03c0-2.68.58-4.66,1.74-5.95,1.16-1.29,3.11-1.93,5.85-1.93,1.12,0,2.25.05,3.37.15v4.36Z" fill="#edece7"/><path d="M87.98,367.53c-.99-.1-1.65-.15-1.98-.15-4.93,0-7.39,3.19-7.39,9.57v11.26h-5.6v-25.59h5.31v5.11c1.82-3.8,4.68-5.7,8.58-5.7l1.09.1v5.41Z" fill="#edece7"/><path d="M101.18,361.83c3.21,0,5.76.63,7.66,1.88,1.9,1.26,2.85,3.21,2.85,5.85v12.99c0,.73.09,1.22.27,1.49.18.26.54.4,1.07.4.4,0,.83-.03,1.29-.1v3.97c-1.46.36-2.68.55-3.67.55-2.41,0-3.8-1.02-4.17-3.07-2.15,2.05-5.14,3.07-8.98,3.07-2.65,0-4.74-.69-6.3-2.06-1.55-1.37-2.33-3.23-2.33-5.58,0-.73.08-1.41.25-2.03.17-.63.36-1.17.57-1.64s.56-.89,1.04-1.29c.48-.4.88-.73,1.19-.99.31-.26.83-.51,1.54-.74s1.24-.41,1.59-.52c.35-.12.95-.24,1.81-.37.86-.13,1.43-.22,1.71-.27.28-.05.87-.12,1.76-.22,2.02-.26,3.39-.49,4.12-.67.73-.18,1.22-.45,1.49-.82.23-.26.35-.88.35-1.83,0-2.58-1.75-3.87-5.26-3.87-1.85,0-3.21.35-4.07,1.04s-1.41,1.87-1.64,3.52h-5.36c.59-5.79,4.33-8.68,11.21-8.68ZM104.75,375.99c-.56.18-1.02.3-1.36.35-.35.05-.89.12-1.64.22-.74.1-1.23.17-1.46.2-.69.1-1.24.19-1.64.27-.4.08-.88.22-1.46.42-.58.2-1.03.44-1.34.72-.31.28-.59.66-.82,1.14-.23.48-.35,1.05-.35,1.71,0,1.22.41,2.17,1.21,2.83.81.66,1.94.99,3.4.99,2.51,0,4.45-.68,5.8-2.03.76-.76,1.14-2.23,1.14-4.41v-3.03c-.43.23-.93.44-1.49.62Z" fill="#edece7"/><path d="M140.51,385.24c0,4.4-.93,7.65-2.8,9.77s-5.03,3.17-9.5,3.17c-7.01,0-10.83-2.6-11.46-7.79h5.65c.53,2.55,2.51,3.82,5.95,3.82,2.35,0,4.06-.6,5.13-1.79,1.07-1.19,1.61-3.11,1.61-5.75v-3.03c-1.85,2.88-4.56,4.31-8.13,4.31s-6.11-1.15-8.11-3.45c-2-2.3-3-5.4-3-9.3s1.04-7.22,3.12-9.65c2.08-2.43,4.84-3.65,8.28-3.65,1.82,0,3.34.34,4.56,1.02,1.22.68,2.36,1.76,3.42,3.25v-3.57h5.26v22.61ZM123.27,368.77c-1.21,1.52-1.81,3.64-1.81,6.35s.62,4.63,1.86,6.15c1.24,1.52,2.88,2.28,4.93,2.28s3.79-.79,5.01-2.36c1.22-1.57,1.83-3.69,1.83-6.37s-.6-4.65-1.81-6.12c-1.21-1.47-2.88-2.21-5.03-2.21s-3.78.76-4.98,2.28Z" fill="#edece7"/><path d="M151.12,366.24c2.12-2.88,4.79-4.31,8.03-4.31,1.69,0,3.15.38,4.39,1.14,1.24.76,2.16,1.83,2.75,3.22,2.05-2.91,4.81-4.36,8.28-4.36,2.41,0,4.41.72,6,2.16s2.38,3.43,2.38,5.98v18.15h-5.65v-15.72c0-1.82-.31-3.24-.94-4.27-.63-1.02-1.83-1.54-3.62-1.54s-3.21.57-4.17,1.71-1.44,2.74-1.44,4.79v15.03h-5.65v-16.02c0-1.82-.27-3.19-.82-4.12-.54-.93-1.68-1.39-3.4-1.39-1.92,0-3.37.62-4.36,1.86-.99,1.24-1.49,2.88-1.49,4.93v14.73h-5.65v-25.59h5.36v3.62Z" fill="#edece7"/><path d="M206.94,386.72c-2.1,1.55-4.6,2.33-7.51,2.33-3.87,0-6.93-1.25-9.2-3.74s-3.4-5.69-3.4-9.6,1.17-7.31,3.5-9.92c2.33-2.61,5.3-3.92,8.9-3.92s6.69,1.28,8.88,3.84c2.18,2.56,3.27,6.06,3.27,10.49v.6h-18.89c.07,2.58.71,4.57,1.93,5.98s2.93,2.11,5.11,2.11c1.55,0,2.82-.37,3.79-1.12.98-.74,1.74-1.93,2.31-3.55h5.41c-.63,2.78-1.99,4.94-4.09,6.5ZM203.72,367.95c-1.17-1.24-2.69-1.86-4.54-1.86s-3.35.6-4.49,1.79c-1.14,1.19-1.84,2.91-2.11,5.16h13.14c-.17-2.15-.83-3.84-2.01-5.08Z" fill="#edece7"/><path d="M220.36,366.39c2.05-2.98,4.88-4.46,8.48-4.46,2.91,0,5.08.79,6.52,2.38,1.44,1.59,2.16,3.87,2.16,6.84v17.06h-5.65v-14.88c0-1.02-.05-1.88-.15-2.55-.1-.68-.31-1.36-.62-2.06-.31-.69-.82-1.21-1.51-1.56s-1.59-.52-2.68-.52c-4.17,0-6.25,2.6-6.25,7.79v13.79h-5.65v-25.59h5.36v3.77Z" fill="#edece7"/><path d="M255.17,366.74h-5.16v13.49c0,.79.02,1.35.05,1.66s.13.66.3,1.04c.17.38.45.64.87.77.41.13.98.2,1.71.2.93,0,1.67-.03,2.23-.1v4.46c-1.12.13-2.4.2-3.82.2-.99,0-1.86-.07-2.6-.22-.74-.15-1.36-.32-1.86-.52-.5-.2-.91-.54-1.24-1.02-.33-.48-.59-.88-.77-1.19-.18-.31-.31-.87-.4-1.66-.08-.79-.12-1.39-.12-1.79v-15.32h-4.26v-4.12h4.26v-7.69h5.65v7.69h5.16v4.12Z" fill="#edece7"/><path d="M279.62,365.55c2.31,2.45,3.47,5.74,3.47,9.87s-1.15,7.47-3.45,9.92c-2.3,2.45-5.41,3.67-9.35,3.67s-7.17-1.22-9.52-3.67c-2.35-2.45-3.52-5.75-3.52-9.92s1.18-7.42,3.55-9.87,5.53-3.67,9.5-3.67,7.01,1.22,9.32,3.67ZM264.89,368.77c-1.29,1.62-1.93,3.84-1.93,6.65s.64,5.12,1.93,6.74c1.29,1.62,3.08,2.43,5.36,2.43s3.96-.82,5.23-2.45c1.27-1.64,1.91-3.89,1.91-6.77s-.64-5.02-1.91-6.62c-1.27-1.6-3.03-2.41-5.28-2.41s-4.02.81-5.31,2.43Z" fill="#edece7"/><path d="M301.99,370.06c-.33-2.71-2.18-4.07-5.55-4.07-1.46,0-2.58.26-3.37.79-.79.53-1.19,1.26-1.19,2.18,0,.3.02.56.07.79s.15.44.3.62c.15.18.28.34.4.47s.32.26.62.4c.3.13.54.24.72.32s.49.18.92.3c.43.12.77.21,1.02.27.25.07.65.16,1.21.27.56.12.99.21,1.29.27,1.29.3,2.22.52,2.8.67.58.15,1.42.45,2.53.89s1.93.91,2.46,1.39c.53.48,1.02,1.14,1.46,1.98.45.84.67,1.81.67,2.9,0,2.58-1.01,4.63-3.02,6.15-2.02,1.52-4.73,2.28-8.13,2.28-3.64,0-6.43-.76-8.38-2.28-1.95-1.52-2.99-3.74-3.12-6.65h5.41c.3,3.21,2.36,4.81,6.2,4.81,1.65,0,2.98-.34,3.99-1.02,1.01-.68,1.51-1.58,1.51-2.7,0-.56-.12-1.04-.37-1.44-.25-.4-.65-.74-1.21-1.02-.56-.28-1.1-.5-1.61-.64-.51-.15-1.2-.32-2.06-.52l-.3-.05c-.07-.03-.15-.06-.25-.07-.1-.02-.2-.04-.3-.07-3.64-.89-5.95-1.59-6.94-2.08-2.35-1.12-3.52-2.99-3.52-5.6,0-2.41.93-4.31,2.78-5.68,1.85-1.37,4.41-2.06,7.69-2.06s5.71.68,7.71,2.03,3,3.41,3,6.15h-5.41Z" fill="#edece7"/><path d="M349.4,397.68h-5.55v-12.89c-2.02,2.71-4.81,4.07-8.38,4.07s-6.23-1.2-8.28-3.6-3.08-5.65-3.08-9.74,1.05-7.52,3.15-9.97,4.95-3.67,8.55-3.67,6.53,1.37,8.28,4.12v-3.37h5.31v35.06ZM331.7,368.9c-1.26,1.64-1.88,3.86-1.88,6.67s.63,4.85,1.88,6.42,2.98,2.36,5.16,2.36,4-.8,5.26-2.41c1.26-1.6,1.88-3.83,1.88-6.67s-.64-4.94-1.91-6.5c-1.27-1.55-3.05-2.33-5.33-2.33-2.12,0-3.8.82-5.06,2.45Z" fill="#edece7"/><path d="M377.18,388.21h-5.31v-3.82c-2.15,3.01-4.96,4.51-8.43,4.51-2.81,0-4.97-.8-6.47-2.41-1.5-1.6-2.26-3.91-2.26-6.92v-16.96h5.65v14.63c0,.89.02,1.61.05,2.16.03.55.14,1.16.32,1.83.18.68.45,1.2.79,1.56.35.36.84.68,1.49.94.64.26,1.43.4,2.36.4,2.12,0,3.67-.75,4.66-2.26.99-1.5,1.49-3.41,1.49-5.73v-13.54h5.65v25.59Z" fill="#edece7"/><path d="M401.25,386.72c-2.1,1.55-4.6,2.33-7.51,2.33-3.87,0-6.93-1.25-9.2-3.74s-3.4-5.69-3.4-9.6,1.17-7.31,3.5-9.92c2.33-2.61,5.3-3.92,8.9-3.92s6.69,1.28,8.88,3.84c2.18,2.56,3.27,6.06,3.27,10.49v.6h-18.89c.07,2.58.71,4.57,1.93,5.98s2.93,2.11,5.11,2.11c1.55,0,2.82-.37,3.79-1.12.98-.74,1.74-1.93,2.31-3.55h5.41c-.63,2.78-1.99,4.94-4.09,6.5ZM398.03,367.95c-1.17-1.24-2.69-1.86-4.54-1.86s-3.35.6-4.49,1.79c-1.14,1.19-1.84,2.91-2.11,5.16h13.14c-.17-2.15-.83-3.84-2.01-5.08Z" fill="#edece7"/><path d="M425.88,362.62l6.55,19.69,6.3-19.69h5.85l-9.17,25.64h-6.35l-9.32-25.64h6.15Z" fill="#edece7"/><path d="M469.77,388.21h-5.31v-3.82c-2.15,3.01-4.96,4.51-8.43,4.51-2.81,0-4.97-.8-6.47-2.41-1.5-1.6-2.26-3.91-2.26-6.92v-16.96h5.65v14.63c0,.89.02,1.61.05,2.16.03.55.14,1.16.32,1.83.18.68.45,1.2.79,1.56.35.36.84.68,1.49.94.64.26,1.43.4,2.36.4,2.12,0,3.67-.75,4.66-2.26.99-1.5,1.49-3.41,1.49-5.73v-13.54h5.65v25.59Z" fill="#edece7"/><path d="M493.85,386.72c-2.1,1.55-4.6,2.33-7.51,2.33-3.87,0-6.93-1.25-9.2-3.74s-3.4-5.69-3.4-9.6,1.17-7.31,3.5-9.92c2.33-2.61,5.3-3.92,8.9-3.92s6.69,1.28,8.88,3.84c2.18,2.56,3.27,6.06,3.27,10.49v.6h-18.89c.07,2.58.71,4.57,1.93,5.98s2.93,2.11,5.11,2.11c1.55,0,2.82-.37,3.79-1.12.98-.74,1.74-1.93,2.31-3.55h5.41c-.63,2.78-1.99,4.94-4.09,6.5ZM490.63,367.95c-1.17-1.24-2.69-1.86-4.54-1.86s-3.35.6-4.49,1.79c-1.14,1.19-1.84,2.91-2.11,5.16h13.14c-.17-2.15-.83-3.84-2.01-5.08Z" fill="#edece7"/><path d="M507.66,388.21h-5.6v-35.31h5.6v35.31Z" fill="#edece7"/><path d="M516.64,362.62l6.55,19.69,6.3-19.69h5.85l-9.17,25.64h-6.35l-9.32-25.64h6.15Z" fill="#edece7"/><path d="M556.89,386.72c-2.1,1.55-4.6,2.33-7.51,2.33-3.87,0-6.93-1.25-9.2-3.74s-3.4-5.69-3.4-9.6,1.17-7.31,3.5-9.92c2.33-2.61,5.3-3.92,8.9-3.92s6.69,1.28,8.88,3.84c2.18,2.56,3.27,6.06,3.27,10.49v.6h-18.89c.07,2.58.71,4.57,1.93,5.98s2.93,2.11,5.11,2.11c1.55,0,2.82-.37,3.79-1.12.98-.74,1.74-1.93,2.31-3.55h5.41c-.63,2.78-1.99,4.94-4.09,6.5ZM553.66,367.95c-1.17-1.24-2.69-1.86-4.54-1.86s-3.35.6-4.49,1.79c-1.14,1.19-1.84,2.91-2.11,5.16h13.14c-.17-2.15-.83-3.84-2.01-5.08Z" fill="#edece7"/><path d="M570.3,366.39c2.05-2.98,4.88-4.46,8.48-4.46,2.91,0,5.08.79,6.52,2.38,1.44,1.59,2.16,3.87,2.16,6.84v17.06h-5.65v-14.88c0-1.02-.05-1.88-.15-2.55-.1-.68-.31-1.36-.62-2.06-.31-.69-.82-1.21-1.51-1.56s-1.59-.52-2.68-.52c-4.17,0-6.25,2.6-6.25,7.79v13.79h-5.65v-25.59h5.36v3.77Z" fill="#edece7"/><path d="M616.63,361.83c3.21,0,5.76.63,7.66,1.88,1.9,1.26,2.85,3.21,2.85,5.85v12.99c0,.73.09,1.22.27,1.49.18.26.54.4,1.07.4.4,0,.83-.03,1.29-.1v3.97c-1.46.36-2.68.55-3.67.55-2.41,0-3.8-1.02-4.17-3.07-2.15,2.05-5.14,3.07-8.98,3.07-2.65,0-4.74-.69-6.3-2.06-1.55-1.37-2.33-3.23-2.33-5.58,0-.73.08-1.41.25-2.03.17-.63.36-1.17.57-1.64s.56-.89,1.04-1.29c.48-.4.88-.73,1.19-.99.31-.26.83-.51,1.54-.74s1.24-.41,1.59-.52c.35-.12.95-.24,1.81-.37.86-.13,1.43-.22,1.71-.27.28-.05.87-.12,1.76-.22,2.02-.26,3.39-.49,4.12-.67.73-.18,1.22-.45,1.49-.82.23-.26.35-.88.35-1.83,0-2.58-1.75-3.87-5.26-3.87-1.85,0-3.21.35-4.07,1.04s-1.41,1.87-1.64,3.52h-5.36c.59-5.79,4.33-8.68,11.21-8.68ZM620.2,375.99c-.56.18-1.02.3-1.36.35-.35.05-.89.12-1.64.22-.74.1-1.23.17-1.46.2-.69.1-1.24.19-1.64.27-.4.08-.88.22-1.46.42-.58.2-1.03.44-1.34.72-.31.28-.59.66-.82,1.14-.23.48-.35,1.05-.35,1.71,0,1.22.41,2.17,1.21,2.83.81.66,1.94.99,3.4.99,2.51,0,4.45-.68,5.8-2.03.76-.76,1.14-2.23,1.14-4.41v-3.03c-.43.23-.93.44-1.49.62Z" fill="#edece7"/><path d="M651.34,388.21h-5.6v-35.31h5.6v35.31Z" fill="#edece7"/><path d="M667.71,361.83c3.21,0,5.76.63,7.66,1.88,1.9,1.26,2.85,3.21,2.85,5.85v12.99c0,.73.09,1.22.27,1.49.18.26.54.4,1.07.4.4,0,.83-.03,1.29-.1v3.97c-1.46.36-2.68.55-3.67.55-2.41,0-3.8-1.02-4.17-3.07-2.15,2.05-5.14,3.07-8.98,3.07-2.65,0-4.74-.69-6.3-2.06-1.55-1.37-2.33-3.23-2.33-5.58,0-.73.08-1.41.25-2.03.17-.63.36-1.17.57-1.64s.56-.89,1.04-1.29c.48-.4.88-.73,1.19-.99.31-.26.83-.51,1.54-.74s1.24-.41,1.59-.52c.35-.12.95-.24,1.81-.37.86-.13,1.43-.22,1.71-.27.28-.05.87-.12,1.76-.22,2.02-.26,3.39-.49,4.12-.67.73-.18,1.22-.45,1.49-.82.23-.26.35-.88.35-1.83,0-2.58-1.75-3.87-5.26-3.87-1.85,0-3.21.35-4.07,1.04s-1.41,1.87-1.64,3.52h-5.36c.59-5.79,4.33-8.68,11.21-8.68ZM671.28,375.99c-.56.18-1.02.3-1.36.35-.35.05-.89.12-1.64.22-.74.1-1.23.17-1.46.2-.69.1-1.24.19-1.64.27-.4.08-.88.22-1.46.42-.58.2-1.03.44-1.34.72-.31.28-.59.66-.82,1.14-.23.48-.35,1.05-.35,1.71,0,1.22.41,2.17,1.21,2.83.81.66,1.94.99,3.4.99,2.51,0,4.45-.68,5.8-2.03.76-.76,1.14-2.23,1.14-4.41v-3.03c-.43.23-.93.44-1.49.62Z" fill="#edece7"/><path d="M700.2,362.62l6.55,19.69,6.3-19.69h5.85l-9.17,25.64h-6.35l-9.32-25.64h6.15Z" fill="#edece7"/><path d="M727.42,358.31h-5.65v-5.55h5.65v5.55ZM727.42,388.21h-5.65v-25.59h5.65v25.59Z" fill="#edece7"/><path d="M757.08,388.21h-5.31v-3.52c-1.62,2.81-4.35,4.22-8.18,4.22-3.6,0-6.47-1.22-8.6-3.67-2.13-2.45-3.2-5.74-3.2-9.87s1.05-7.36,3.15-9.79c2.1-2.43,4.92-3.65,8.46-3.65s6.31,1.34,8.13,4.02v-13.04h5.55v35.31ZM739.35,368.85c-1.24,1.57-1.86,3.71-1.86,6.42s.64,5.03,1.91,6.65c1.27,1.62,3.02,2.43,5.23,2.43s3.94-.79,5.18-2.38c1.24-1.59,1.86-3.79,1.86-6.6s-.64-4.99-1.91-6.55c-1.27-1.55-3.05-2.33-5.33-2.33-2.15,0-3.84.79-5.08,2.36Z" fill="#edece7"/><path d="M773.35,361.83c3.21,0,5.76.63,7.66,1.88,1.9,1.26,2.85,3.21,2.85,5.85v12.99c0,.73.09,1.22.27,1.49.18.26.54.4,1.07.4.4,0,.83-.03,1.29-.1v3.97c-1.46.36-2.68.55-3.67.55-2.41,0-3.8-1.02-4.17-3.07-2.15,2.05-5.14,3.07-8.98,3.07-2.65,0-4.74-.69-6.3-2.06-1.55-1.37-2.33-3.23-2.33-5.58,0-.73.08-1.41.25-2.03.17-.63.36-1.17.57-1.64s.56-.89,1.04-1.29c.48-.4.88-.73,1.19-.99.31-.26.83-.51,1.54-.74s1.24-.41,1.59-.52c.35-.12.95-.24,1.81-.37.86-.13,1.43-.22,1.71-.27.28-.05.87-.12,1.76-.22,2.02-.26,3.39-.49,4.12-.67.73-.18,1.22-.45,1.49-.82.23-.26.35-.88.35-1.83,0-2.58-1.75-3.87-5.26-3.87-1.85,0-3.21.35-4.07,1.04s-1.41,1.87-1.64,3.52h-5.36c.59-5.79,4.33-8.68,11.21-8.68ZM776.92,375.99c-.56.18-1.02.3-1.36.35-.35.05-.89.12-1.64.22-.74.1-1.23.17-1.46.2-.69.1-1.24.19-1.64.27-.4.08-.88.22-1.46.42-.58.2-1.03.44-1.34.72-.31.28-.59.66-.82,1.14-.23.48-.35,1.05-.35,1.71,0,1.22.41,2.17,1.21,2.83.81.66,1.94.99,3.4.99,2.51,0,4.45-.68,5.8-2.03.76-.76,1.14-2.23,1.14-4.41v-3.03c-.43.23-.93.44-1.49.62Z" fill="#edece7"/></svg>