<?xml version="1.0" encoding="UTF-8"?><svg id="a" xmlns="http://www.w3.org/2000/svg" viewBox="0 0 841.89 595.28"><path d="M118.82,267.57c-3.79-.76-7.27-1.14-10.43-1.14-8.85,0-15.37,2.81-19.54,8.44-4.17,5.63-6.26,13.18-6.26,22.67v44.77h-26.94v-97.88h25.61v18.02c6.45-13.53,17.01-20.3,31.68-20.3,1.26,0,3.22.19,5.88.57v24.85Z" fill="#edece7"/><path d="M199.56,336.43c-8.16,5.82-17.87,8.73-29.12,8.73-15.05,0-27.16-4.68-36.33-14.04-9.17-9.36-13.75-21.75-13.75-37.18s4.62-27.69,13.85-37.56c9.23-9.86,20.99-14.8,35.28-14.8s26.56,5.03,35.28,15.08c8.73,10.05,13.09,23.68,13.09,40.88v2.66h-70.19c.13,8.47,2.18,14.92,6.16,19.35,3.99,4.43,9.58,6.64,16.79,6.64,9.48,0,16.12-4.74,19.92-14.23h25.8c-3.04,10.5-8.63,18.65-16.79,24.47ZM184.29,267.29c-3.54-4.11-8.47-6.16-14.8-6.16-5.94,0-10.88,1.96-14.8,5.88-3.92,3.92-6.26,9.3-7.02,16.12h42.87c-.63-6.45-2.72-11.73-6.26-15.84Z" fill="#edece7"/><path d="M278.47,262.64h-19.92l.02,44.32c0,2.91.53,5.08.66,6.4.13,1.33.57,2.69,1.33,4.08.76,1.39,1.93,2.31,3.51,2.75s4.09.71,6.88-.12c5.04-1.49,9.19-3.18,12.19-9.55l.56,27.86c-5.21,3.52-17.25,5.06-21.55,5.06-11.76,0-19.76-2.05-24-6.16-4.24-4.11-6.35-12.05-6.35-23.81v-50.84h-16.32v-18.21h16.32v-29.59h26.75v29.59h19.92v18.21Z" fill="#edece7"/><path d="M351.69,342.31c-.89-2.53-1.52-5.69-1.9-9.48-8.22,8.22-18.78,12.33-31.68,12.33-10.88,0-19.41-2.62-25.61-7.87-6.2-5.25-8.8-14.22-8.8-23.45,0-4.17.04-6.11,1.12-9.27,1.07-3.16,2.85-5.82,5.31-7.97,2.47-2.15,4.69-4.12,7.02-5.31,2.88-1.47,5.28-2.53,9.2-3.42,3.92-.88,7.08-1.55,9.48-1.99,2.4-.44,5.75-.92,10.06-1.42,9.48-1.27,15.84-2.59,19.06-3.98,3.22-1.39,4.84-3.98,4.84-7.78,0-8.72-5.88-13.09-17.64-13.09-6.2,0-10.75,1.11-13.66,3.32-2.91,2.21-4.81,6.1-5.69,11.67h-25.23c1.52-22.01,16.63-33.01,45.34-33.01s42.68,10.62,42.68,31.87v42.3c0,12.39,1.14,21.25,3.42,26.56h-27.32ZM330.63,299.82c-7.97,1.27-13.15,2.85-15.55,4.74-2.78,2.4-4.17,5.69-4.17,9.86s1.3,7.24,3.89,9.58c2.59,2.34,6.23,3.51,10.91,3.51,7.21,0,12.99-1.93,17.36-5.79,4.36-3.86,6.55-9.2,6.55-16.03v-11c-3.16,1.9-9.49,3.6-18.97,5.12Z" fill="#edece7"/><path d="M452.2,342.31v-57.1c0-6.96-1.14-12.24-3.41-15.84-2.28-3.6-6.7-5.41-13.28-5.41-14.16,0-21.25,8.6-21.25,25.8v52.55h-26.75v-97.88h25.61v13.66c8.1-10.88,18.91-16.31,32.44-16.31,10.5,0,18.78,3.04,24.85,9.11,6.07,6.07,9.11,14.73,9.11,25.99v65.45h-27.32Z" fill="#edece7"/><path d="M518.55,342.31h-26.94v-97.88h26.94v97.88Z" fill="#edece7"/><path d="M655.05,342.31v-58.43c0-6.45-1.01-11.41-3.04-14.89-2.02-3.48-6.2-5.22-12.52-5.22-12.52,0-18.78,7.84-18.78,23.52v55.01h-26.94v-59.57c0-6.07-1.01-10.78-3.04-14.13-2.02-3.35-5.95-5.03-11.76-5.03-13.03,0-19.54,8.54-19.54,25.61v53.12h-26.94v-97.88h25.61v13.47c7.71-10.75,18.09-16.12,31.11-16.12s22.76,5.37,27.69,16.12c7.84-10.75,18.53-16.12,32.06-16.12,10.75,0,19,3.13,24.76,9.39,5.75,6.26,8.63,14.7,8.63,25.32v65.83h-27.32Z" fill="#edece7"/><path d="M758.92,342.31c-.89-2.53-1.52-5.69-1.9-9.48-8.22,8.22-14.76,12.33-27.66,12.33-10.88,0-23.43-2.62-29.63-7.87-6.2-5.25-9.29-12.49-9.29-21.72,0-4.17.54-7.84,1.61-11,1.07-3.16,2.85-5.82,5.31-7.97,2.47-2.15,4.86-3.84,7.02-5.31,2.8-1.91,5.28-2.53,9.2-3.42,3.92-.88,7.08-1.55,9.48-1.99,2.4-.44,5.75-.92,10.06-1.42,9.48-1.27,15.84-2.59,19.06-3.98,3.22-1.39,4.84-3.98,4.84-7.78,0-8.72-5.88-13.09-17.64-13.09-6.2,0-10.75,1.11-13.66,3.32-2.91,2.21-4.81,6.1-5.69,11.67h-25.23c1.52-22.01,16.63-33.01,45.34-33.01s42.68,10.62,42.68,31.87v42.3c0,12.39,1.14,21.25,3.42,26.56h-27.32ZM737.86,299.82c-7.97,1.27-13.15,2.85-15.55,4.74-2.78,2.4-4.17,5.69-4.17,9.86s1.3,7.24,3.89,9.58c2.59,2.34,6.23,3.51,10.91,3.51,7.21,0,12.99-1.93,17.36-5.79s6.55-9.2,6.55-16.03v-11c-3.16,1.9-9.49,3.6-18.97,5.12Z" fill="#edece7"/><path d="M281.11,315.53c1.22-2.19,1.7-3.7,3.03-8.57l10.03,24.31c.34-.08-5.45,5.26-15.24,9.35l-4.33,1.23-1.21-21.25c.6-.02,1.87-.43,2.77-.69,2.8-1.64,2.23-1.76,2.73-2.04.98-.77,1.62-1.25,2.22-2.33Z" fill="#edece7"/><rect x="490.78" y="213.6" width="27.77" height="19.09" fill="#edece7"/><rect x="312.82" y="213.6" width="57.83" height="19.09" fill="#edece7"/></svg>